<svg xmlns="http://www.w3.org/2000/svg" xmlns:xlink="http://www.w3.org/1999/xlink" xml:space="preserve" version="1.1" style="shape-rendering:geometricPrecision;text-rendering:geometricPrecision;image-rendering:optimizeQuality;" viewBox="0 0 60000 75000" x="0px" y="0px" fill-rule="evenodd" clip-rule="evenodd"><defs><style type="text/css">
   
    .fil0 {fill:black;fill-rule:nonzero}
   
  </style></defs><g><path class="fil0" d="M31291.51 3055.95l1103.17 561.01c458.63,233.23 624.29,565.44 601.57,913 -16.29,249.12 -139.56,485.5 -323.44,681.36 -161.62,172.15 -375.3,318.05 -600.53,411.43 -464.54,192.62 -992.76,176.27 -1320.88,-228.14 -13.63,-16.76 -25.65,-34.29 -36.12,-52.42l-842.41 -1413.74c-106.25,-178.32 -257.1,-77.3 -467.18,11.3 -1131.87,477.35 -2022.64,905.7 -3026.99,1393.22l1459.13 -26.98c220.05,-3.45 401.24,172.14 404.69,392.19 0.52,33.39 -3.1,65.88 -10.35,97l-348.37 1730.89c-43.15,215.73 -253.03,355.65 -468.76,312.5 -35.4,-7.08 -68.73,-18.68 -99.57,-34.02l-1812.92 -805.59 565.27 970.53c258.54,443.91 217.41,812.74 9.74,1092.7 -148.58,200.3 -380.21,332 -640.88,396.9 -227.39,56.61 -485.49,63.08 -726.07,19.33 -495.55,-90.11 -931.21,-390.47 -987.73,-908.57 -2.73,-25.64 -2.93,-50.95 -0.87,-75.73l64.46 -1812.4c-1314.69,735.59 -2504.3,1489.48 -3581.54,2269.34l2271.71 -42c220.05,-3.45 401.24,172.14 404.69,392.19 0.52,33.39 -3.1,65.88 -10.35,97l-348.38 1730.89c-43.15,215.73 -253.03,355.65 -468.76,312.5 -35.4,-7.08 -68.73,-18.68 -99.57,-34.02l-1812.9 -805.59 565.26 970.53c258.54,443.91 217.41,812.73 9.74,1092.69 -148.58,200.3 -380.2,332 -640.89,396.9 -227.39,56.61 -485.49,63.08 -726.07,19.33 -495.55,-90.11 -931.21,-390.47 -987.73,-908.56 -2.73,-25.64 -2.93,-50.95 -0.87,-75.73l62.09 -1745.78c-456.89,390.96 -889.59,788.94 -1299.39,1194.86 -2856.2,2829.14 -4610.92,6052.45 -5751.51,9960.57l3377.15 -1460.96c201.93,-87.15 436.29,5.89 523.44,207.82 11.75,27.22 20.18,55.04 25.56,83l1 -0.19 456.35 2357.83c41.42,216.6 -100.59,425.77 -317.19,467.19 -37.65,7.2 -75.07,8.85 -111.44,5.53l-3107.47 -88.14 1544.7 1183.07c499.86,382.83 627.01,812.11 524.91,1214.62 -74.39,293.26 -276.73,550.14 -544.33,746.8 -241.13,177.24 -541.93,309.93 -845.66,374.63 -607.98,129.53 -1243.63,-4.28 -1545.24,-558.4 -9.51,-17.45 -17.55,-35.31 -24.22,-53.42l-0.78 0.29 -630.33 -1704.27c-730.21,3805.56 -556.36,7190.68 291.11,10324.91 1019.76,3771.39 3017.85,7191.63 5591.38,10550.24 2086.07,2722.43 4560.81,4896.09 7309.84,6602.84 2995.81,1859.93 6316.87,3165.7 9815.79,4023.01 2960.83,725.46 6050.2,1130.61 9178.9,1279.17 3435.91,163.15 6920.24,16.5 10334.84,-355.5 217.87,-23.16 413.38,133.61 438.6,350.75 194.35,1110.97 -92.38,1718.74 -484.26,2054.08 -404.41,346.08 -894.36,374.91 -1112.39,380.98l-423.18 11.85c-6703.3,188.24 -16016.25,449.77 -23896.03,-2704.05 -204.51,-81.98 -303.85,-314.24 -221.87,-518.75 81.98,-204.51 314.24,-303.85 518.75,-221.87 7727.53,3092.88 16943.65,2834.08 23577.27,2647.79l423.18 -11.85c128.45,-3.58 415.37,-19.09 615.51,-190.36 173.54,-148.51 302.18,-431.65 262.52,-963.76 -3327.07,345.42 -6719.02,476.71 -10070.44,317.57 -3176.69,-150.83 -6316.26,-562.9 -9328.9,-1301.05 -2711.35,-664.34 -5318.98,-1592.32 -7757.67,-2830.78l-6467.07 -2093.19c-35.91,-11.26 -71.75,-22.78 -107.42,-34.76l-2075.66 -671.83 -0.04 0.17c-3389.97,-918.11 -5345.45,-1508.22 -6794.56,-2454.96 -1469.82,-960.28 -2373.75,-2248.16 -3647.2,-4554.15 -106.14,-193.29 -35.48,-436.05 157.81,-542.19 96.34,-52.9 204.97,-61.87 302.84,-33.64 3811.57,874.16 6260.53,2985.8 8369.15,4804.16 1365.31,1177.36 2582.2,2226.63 3898.73,2682.48l3168.6 1025.57c-2468.09,-1659.93 -4702.57,-3710.97 -6620.02,-6213.35 -2632.07,-3435.01 -4678.19,-6942.58 -5728.88,-10828.36 -882.95,-3265.42 -1060.43,-6789.68 -289.53,-10750.26l-972.35 1006.22c-13.46,13.82 -28.02,26.92 -43.75,39.07 -479.35,370.71 -1089.23,243.35 -1572.83,-104.8 -239.87,-172.67 -451.46,-403.99 -594.29,-651.74 -158.78,-275.43 -237.23,-578.27 -189.56,-863.5 66.12,-395.64 344.04,-725.5 931.37,-868.95l1712.48 -418.27 -2671.77 -1084.77 0.28 -0.68c-26.53,-10.78 -52.3,-24.56 -76.84,-41.5 -181.22,-125.12 -226.69,-373.47 -101.57,-554.69l1277.87 -1847.13c18.18,-29.08 40.41,-56.29 66.72,-80.77 161.37,-150.15 413.92,-141.06 564.07,20.31l2380.24 2562.81c1178.8,-3988.21 2989.03,-7288.15 5922.79,-10194.11 398.73,-394.96 818.32,-782.38 1259.56,-1163.15 -64.92,-4.12 -137.73,-8.21 -221.79,-12.91 -601.28,-33.68 -1690.77,-94.72 -1928.26,-231.7 -432.2,-249.22 -593.09,-827.4 -524.9,-1340.13 21.58,-162.23 65.43,-320.92 130.03,-462.33 71.79,-157.16 169.89,-295.59 293.06,-400.08 268.87,-228.08 619.2,-296.77 1030.77,-77.29 294.9,157.24 685.13,441.61 1071.27,737.67l-541.71 -1694.55c-2.26,-7.19 -4.36,-14.47 -6.25,-21.87l-34.11 -132.87c-7.57,-22.65 -13.23,-46.31 -16.72,-70.81 -31.06,-218.32 120.74,-420.5 339.06,-451.56l143.28 -20.61 0.11 0.78c6.68,-0.94 13.41,-1.74 20.2,-2.35l1448.8 -131.57c11.49,-1.92 23.15,-3.38 34.98,-4.31l262.21 -21.16c19.99,-1.49 40.34,-1.53 60.94,0 220.05,16.39 385.14,208.08 368.75,428.13l-15.75 205.5 -0.45 -0.03 -1.11 12.53 -255.61 2369.36c1042.54,-771.29 2188.9,-1516.61 3450.48,-2242.96 -494.08,-39.44 -983.54,-100.44 -1142.18,-202.05 -398.48,-255.24 -549.77,-801.78 -491.45,-1293.93 20.08,-169.45 65.6,-337.57 134.8,-488.37 76.98,-167.76 183.48,-313.85 318.08,-420.01l0.76 0.97c257.14,-202.45 583.17,-263.22 961.29,-79.34 277.84,135.12 699.11,441.26 1113.87,759.08l-491.82 -1538.43c-6.86,-16.32 -12.74,-33.27 -17.5,-50.82l-77.45 -284.47 0.71 -0.19c-5.43,-20.13 -9.38,-40.93 -11.65,-62.31 -23.3,-219.19 135.5,-415.77 354.69,-439.07l245.94 -26.74 0.08 0.77 1297.5 -117.01c12.1,-1.88 24.38,-3.25 36.84,-4.03l189.29 -12.17c22.04,-1.28 44.5,-0.85 67.19,1.56 219.19,23.3 377.99,219.88 354.69,439.07l-21.84 199.23 -0.68 -0.07 -0.89 7.88 -288.45 2254.88c1190.94,-594.8 2307.54,-1110.93 3680.09,-1689.11 250.61,-105.56 360.28,-125.74 442.88,-387.14l576.5 -1824.26 1.34 0.42c5.56,-17.54 12.36,-34.91 20.53,-51.99 225.74,-469.83 735.35,-608.28 1231.22,-528.57 241.01,38.73 482.82,131.21 679.9,261.25 224.56,148.16 399.28,349.26 472.52,586.84 102.64,333.01 18.27,694.77 -374.24,1028.18l-898.9 763.52zm7915.38 51923.29c219.19,25.02 376.59,223 351.57,442.19 -25.02,219.19 -223,376.59 -442.19,351.57 -5086.88,-597.07 -9245.4,-2214.11 -12506.88,-4583.77 -3513.29,-2552.62 -5981.95,-5974.37 -7446.4,-9933.29 -522.34,-1412.1 -1064.17,-2583.99 -1552.5,-3640.22 -1576.66,-3410.14 -2614.23,-5654.32 -841.8,-10767.54 71.62,-207.96 298.29,-318.49 506.25,-246.87 96.7,33.3 172.31,100.13 218.36,183.02l0.39 -0.21c1911.79,3428.42 2115.31,7219.82 2289.21,10459.51 114.64,2135.77 216.1,4023.95 790.5,5331.41 1445.83,3138.03 3605.9,5861.12 6504.75,7967.31 3154.19,2291.7 7186.29,3856.77 12128.74,4436.89zm-20871.4 -17697.9c239.5,518.02 491.68,1063.47 748.42,1651.25 -37.86,-529.68 -67.42,-1080.59 -97.89,-1648.34 -154.86,-2884.99 -334.12,-6219.29 -1757.43,-9267.22 -1242.45,4182.03 -291.33,6240.09 1106.9,9264.31zm12117.1 -34560.16l1222.2 -1038.13c104.61,-88.86 138.37,-148.68 127.36,-184.42 -15.51,-50.32 -70.86,-105.02 -147.52,-155.6 -104.15,-68.72 -234.86,-118.07 -367.4,-139.37 -163.31,-26.25 -317.91,-12.62 -375.8,65.56l-458.84 1451.96zm1579.59 1608.28l-1423.35 -723.83 774.35 1299.52c73.5,66 228.66,44.03 382.84,-19.9 124.27,-51.52 240.13,-129.84 325.53,-220.81 63.13,-67.24 104.46,-132.98 107.82,-184.48 2.45,-37.47 -44.42,-88.07 -167.19,-150.5zm-7341.41 297.62l230.05 -1798.39 -782.44 70.51 552.39 1727.88zm-907.61 879.79c-502.3,-393 -1112.67,-868.56 -1420.89,-1018.46 -61.09,-29.71 -100.19,-30.57 -121.41,-13.83l-0.76 0.59 0.76 0.97c-32.56,25.68 -61.97,68.95 -86.84,123.15 -32.66,71.18 -55.01,157.76 -66.04,250.87 -26.55,224.02 10.57,452.46 128.95,528.29 75.68,48.47 1029.38,99.68 1566.23,128.42zm3572.53 605.14l-1813.24 33.53 1658.19 736.84 155.05 -770.37zm-1978.49 2257.48l-803.8 -1380.07 -53.78 1512.42c24.35,96.12 166.91,162.25 331.61,192.2 131.66,23.94 272.02,20.62 394.83,-9.95 89.52,-22.29 159.98,-55.24 190.88,-96.9 22.21,-29.94 9.98,-97.99 -59.74,-217.7zm-6707.47 170.11l239.89 -2223.66 -923.93 83.91 684.04 2139.75zm-1041.53 467.31c-487.39,-381.15 -1054.61,-824.58 -1403.72,-1010.73 -69.87,-37.26 -115.16,-37.65 -140.15,-16.45 -31.23,26.49 -59.53,69.08 -83.68,121.96 -31.35,68.62 -53.1,149.11 -64.41,234.19 -30.94,232.66 5.87,474.15 131.16,546.39 70.79,40.84 1023.27,94.53 1560.8,124.64zm4366.3 708.18l-1813.24 33.52 1658.19 736.84 155.05 -770.36zm-1978.49 2257.47l-803.8 -1380.09 -53.79 1512.44c24.34,96.11 166.91,162.24 331.61,192.19 131.66,23.94 272.02,20.62 394.83,-9.95 89.53,-22.29 159.99,-55.24 190.89,-96.9 22.21,-29.94 9.98,-97.98 -59.74,-217.69zm-10011.04 9693.34l-1993.83 -2146.76 -722.25 1044 2716.08 1102.76zm13.08 1156.07l-2343.81 572.48c-219.44,53.6 -316.5,136.24 -331.37,225.21 -15.56,93.13 21.96,212.67 92.68,335.36 86.68,150.36 218.18,292.97 369.29,401.74 210.75,151.72 447.99,231.4 601.06,133.51l1612.15 -1668.3zm4591.12 -1847.74l-2982.81 1290.37 3250.4 92.19 -267.59 -1382.56zm-1329.45 3922.14l-2096.2 -1605.46 883.98 2390.09c112.96,169.03 387.26,195.14 665.9,135.78 195.97,-41.74 387.86,-125.75 539.4,-237.13 125.1,-91.94 215.57,-195.72 241.21,-296.8 26.01,-102.55 -34.88,-233.76 -234.29,-386.48zm-2525.57 22907.76c1211.56,791.55 2862.3,1332.52 5567.3,2079.73 -439.63,-353.75 -883.8,-736.75 -1344.08,-1133.67 -1869.07,-1611.78 -4014.81,-3461.77 -7145.8,-4397.83 977.14,1682.94 1766.04,2696.16 2922.58,3451.77z"/></g><text x="0" y="60015" fill="#000000" font-size="5px" font-weight="bold" font-family="'Helvetica Neue', Helvetica, Arial-Unicode, Arial, Sans-serif">Created by Olena Panasovska</text><text x="0" y="60020" fill="#000000" font-size="5px" font-weight="bold" font-family="'Helvetica Neue', Helvetica, Arial-Unicode, Arial, Sans-serif">from the Noun Project</text></svg>